<svg width="22" height="22" viewBox="0 0 22 22" fill="none" xmlns="http://www.w3.org/2000/svg">
								<mask id="mask0_231_206" style="mask-type:luminance" maskUnits="userSpaceOnUse" x="0" y="0" width="22" height="22">
								<path d="M0 1.90735e-06H22V22H0V1.90735e-06Z" fill="white"/>
								</mask>
								<g mask="url(#mask0_231_206)">
								<path d="M19.6788 5.9772C19.6682 5.41805 19.6581 4.88979 19.6581 4.37881C19.6581 3.97842 19.3336 3.65388 18.9331 3.65388C15.8329 3.65388 13.4725 2.76284 11.505 0.849826C11.2235 0.576072 10.7756 0.576201 10.4943 0.849826C8.52693 2.76284 6.16691 3.65388 3.06689 3.65388C2.66651 3.65388 2.34192 3.97842 2.34192 4.37881C2.34192 4.88992 2.33191 5.41835 2.32117 5.97763C2.22182 11.1813 2.08574 18.308 10.7622 21.3155C10.8391 21.3421 10.9193 21.3555 10.9996 21.3555C11.0798 21.3555 11.1601 21.3421 11.237 21.3155C19.9141 18.3079 19.7782 11.181 19.6788 5.9772Z" stroke="var(--color-primary)" stroke-width="2" stroke-miterlimit="10"/>
								<path d="M12.2863 10.4984C11.734 10.4984 11.2863 10.0507 11.2863 9.4984V7.77972H10.714V9.4984C10.714 10.0507 10.2662 10.4984 9.71396 10.4984H7.99512V11.0708H9.71396C10.2662 11.0708 10.714 11.5185 10.714 12.0708V13.7894H11.2863V12.0708C11.2863 11.5185 11.734 11.0708 12.2863 11.0708H14.0048V10.4984H12.2863Z" stroke="var(--secondary)" stroke-width="2" stroke-miterlimit="10" stroke-linejoin="round"/>
								</g>
								</svg>